<svg xmlns="http://www.w3.org/2000/svg" xmlns:xlink="http://www.w3.org/1999/xlink" version="1.1" id="Layer_1" x="0px" y="0px" width="100px" height="100px" viewBox="5.0 -10.0 100.0 135.0" enable-background="new 0 0 100 100" xml:space="preserve">
<path fill-rule="evenodd" clip-rule="evenodd" d="M23.583,78.494l-3.385,3.313c-1.011,1.007-1.938,1.327-2.17,1.422  c-0.565,0.228-1.242,0.405-1.733,0.487c-0.694,0.103-2.74,0.001-3.729-0.349c-2.107-0.771-3.443-2.46-3.44-4.38l-0.1-4.147  c1.479,1.277,3.71,2.404,4.675,2.793C16.747,78.782,20.338,79.044,23.583,78.494z M45.815,76.32l-8.448-1.602l-6.95,5.475  c-0.273,0.231-0.715,0.698-1.01,1.187c-0.474,0.883-0.732,1.272-0.481,2.938l0.008,0.042c0.33,1.711,1.337,2.965,3.326,3.438  c0.673,0.125,1.754,0.009,2.112-0.098l16.352-5.194C48.5,81.163,46.691,78.925,45.815,76.32z M94.479,62.187  c0.503,3.221,0.138,5.914-0.951,7.711c-0.625,1.029-1.49,1.772-2.569,2.14c-1.079,0.368-32.517,10.333-32.517,10.333  c-0.534,0.166-2.043,0.407-3.305,0.25c-1.154-0.186-2.269-0.615-3.295-1.235c-1.979-1.193-3.609-3.102-4.567-5.339  c1.73-1.006,20.766-12.069,20.766-12.069s0-1.659,0-1.661l-21.75,12.763L38.485,73.6l-5.023-0.953  c-1.039,1.016-2.166,2.108-3.587,2.94c-1.486,0.868-3.271,1.468-5.174,1.79c-3.246,0.55-6.836,0.288-9.881-0.861  c-0.965-0.389-3.197-1.517-4.676-2.793c-0.02-0.018-0.042-0.034-0.061-0.052c-1.479-1.299-2.623-2.847-3.323-4.513  c0,0-0.788-2.938-0.802-3.719L5.062,25.37c0-2.222,0.499-4.317,1.544-6.195c1.422-2.556,3.696-4.371,6.495-5.484  c2.634-1.048,5.716-1.467,8.992-1.318c0.942,0.043,1.904,0.139,2.874,0.275c0.801-0.16,1.608-0.29,2.42-0.372  c0.55-0.055,1.1-0.094,1.651-0.112c10.127-0.333,16.231,5.182,18.237,6.995c1.689,1.739,4.598,4.748,6.393,10.035l0,0  c0.248,0.73,0.476,1.5,0.676,2.318c2.608,4.123,4.066,8.526,3.814,12.566c-0.041,0.657-0.131,1.289-0.257,1.899l10.142,4.53  c0,0,7.636-6.119,8.525-6.606c1.837-1.006,4.333-0.716,7.055,0.957c0.697,0.428,1.387,0.939,2.059,1.514  c2.759,0.843,4.512,2.417,5.234,3.069c1.039,1.069,2.974,3.062,3.768,6.871C95.084,58.238,95.011,60.208,94.479,62.187z   M19.907,23.461c-4.498,3.069-4.208,7.711-0.701,9.07c2.84,1.101,6.393-1.221,7.909-2.212c2.586-1.691,2.586-1.691,9.311-0.458  c6.521,1.194,7.196-3.612,5.717-5.881c-1.521-2.335-4.616-4.013-7.525-4.082c-2.468-0.058-9.673,1.654-11.091,1.998  C22.758,22.082,21.267,22.533,19.907,23.461z M55.012,35.944c-0.194-0.492-0.4-0.983-0.633-1.473  c0.292,1.947,0.343,3.914,0.146,5.893c0.049,0.63,0.053,1.253,0.01,1.869c-0.3,1.455-0.731,2.912-1.291,4.37  c-1.097,1.632-2.685,2.944-4.683,3.858c-1.988,0.91-4.394,1.44-7.123,1.499c-2.889,0.062-6.138-0.404-9.603-1.507  c-3.656-1.165-7.143-2.907-10.27-5.074c-3.233-2.24-6.002-4.882-8.117-7.719c-4.19-5.625-5.522-11.569-3.163-16.166  c0.834-1.021,1.835-2.08,3.019-3.113c0.565-0.384,5.954-3.473,8.166-4.21c-0.564,0.008-1.119,0.039-1.666,0.085  c-1.956,0.166-3.794,0.572-5.441,1.245c-2.58,1.055-4.672,2.744-5.982,5.099c-1.025,1.841-1.481,3.902-1.422,6.083  c0.103,3.805,1.78,7.98,4.779,12.013c2.325,3.127,5.366,6.038,8.902,8.5c3.414,2.376,7.208,4.278,11.168,5.54  c3.742,1.191,7.234,1.683,10.324,1.596c2.912-0.082,5.464-0.676,7.561-1.681c0.137-0.065,0.267-0.137,0.4-0.206  c1.794-0.933,3.246-2.178,4.287-3.687c1.067-1.547,1.718-3.385,1.885-5.467C56.457,40.926,55.988,38.428,55.012,35.944z   M93.505,64.781c-0.393,0.776-0.887,1.541-1.478,2.265c-0.017,0.033-0.032,0.071-0.052,0.103c-0.385,0.653-0.887,1.161-1.493,1.499  c-0.951,0.531-2.156,0.636-3.575,0.184c-4.434-1.412-8.874-7.365-10.296-13.437c0.185,0.158,0.401,0.292,0.654,0.389  c1.452,0.563,3.268-0.623,4.044-1.13c1.321-0.864,1.321-0.864,4.76-0.234c3.335,0.612,3.679-1.847,2.923-3.007  c-0.777-1.194-2.36-2.052-3.847-2.087c-1.262-0.029-4.946,0.846-5.671,1.021c-0.393,0.095-1.155,0.325-1.851,0.801  c-0.696,0.475-1.165,1.024-1.435,1.577c-0.002-0.027-0.005-0.055-0.006-0.082c-0.224-3.056,0.561-5.195,1.938-6.257  c0.067-0.053,0.137-0.105,0.208-0.152c0.964-0.641,2.187-0.79,3.56-0.411c0.475-0.001,0.934,0.017,1.372,0.061  c-2.331-1.319-4.441-1.469-5.992-0.53c-0.772,0.467-1.403,1.205-1.847,2.191c-0.552,1.226-0.815,2.836-0.692,4.803  c0.479,7.706,6.26,16.33,12.053,18.174c0.2,0.064,0.395,0.115,0.588,0.159c2.321,0.538,4.084-0.292,5.111-2.009  C93.086,67.661,93.431,66.333,93.505,64.781z"/>
<text x="0.0" y="117.5" font-size="5.0" font-weight="bold" font-family="Helvetica Neue, Helvetica, Arial-Unicode, Arial, Sans-serif" fill="#000000">Created by Lukasz M. Pogoda</text><text x="0.0" y="122.5" font-size="5.0" font-weight="bold" font-family="Helvetica Neue, Helvetica, Arial-Unicode, Arial, Sans-serif" fill="#000000">from the Noun Project</text></svg>