<svg xmlns="http://www.w3.org/2000/svg" xmlns:xlink="http://www.w3.org/1999/xlink" version="1.1" id="Your_Icon" x="0px" y="0px" width="100px" height="100px" viewBox="5.0 -10.0 100.0 135.0" enable-background="new 0 0 100 100" xml:space="preserve">
<path d="M64.351,59.312c-1.069-3.233-1.616-5.314,0.015-6.778l26.918-26.92c2.726-2.917,6.217-10.132-0.248-16.595  c-6.474-6.477-13.636-2.93-16.537-0.109L47.645,35.76c-0.822,0.876-3.464,0.205-5.764-0.371c-3.381-0.835-7.202-1.781-9.695,0.711  l-9.064,9.066l0.028,0.026c-0.178,0.151-0.371,0.316-0.548,0.494c-4.888,4.888-1.739,15.704,7.162,24.605  c8.9,8.898,19.715,12.05,24.605,7.159l9.584-9.583C66.362,65.458,65.294,62.199,64.351,59.312z M70.949,17.931  c1.056,0.644,2.328,1.506,3.423,2.273l-6.763,6.764c-1.081-0.863-2.204-1.656-3.355-2.341L70.949,17.931z M61.434,27.447  c1.739,0.972,3.41,2.178,4.998,3.602c0.767,0.685,1.932,0.643,2.657-0.083l9.625-9.625c0.396-0.398,0.588-0.945,0.562-1.492  c-0.028-0.576-0.315-1.082-0.768-1.425c-0.136-0.109-2.531-1.902-4.753-3.3l3.451-3.45c0.233-0.232,5.656-5.354,11.092,0.083  c5.313,5.313,0.697,10.612,0.206,11.16l-25.331,25.33c-2.711-4.463-6.791-8.572-11.243-11.295L61.434,27.447z M34.924,38.841  c0.945-0.946,3.643-0.274,6.011,0.314c2.629,0.658,5.532,1.371,7.792,0.396c4.709,2.576,9.161,6.997,11.72,11.72  c-1.821,3.002-0.656,6.547,0.219,9.257c0.767,2.328,1.219,3.93,0.547,4.601l-4.627,4.628c-0.534-5.134-3.836-11.392-9.366-16.922  c-5.532-5.532-11.79-8.832-16.924-9.367L34.924,38.841z M46.481,59.845c-1.726,1.724-4.547,1.724-6.271,0  c-1.725-1.726-1.725-4.547,0-6.271c0.329-0.329,0.713-0.604,1.123-0.822c1.054,0.836,2.109,1.781,3.15,2.821  c1.04,1.04,1.972,2.082,2.806,3.135C47.084,59.131,46.823,59.502,46.481,59.845z M32.501,67.555  c-7.75-7.752-9.982-16.31-7.161-19.13c2.274-2.273,8.215-1.286,14.474,3.19c-0.289,0.206-0.576,0.438-0.85,0.713  c-2.41,2.409-2.423,6.341,0,8.763c2.423,2.426,6.354,2.409,8.764,0c0.261-0.26,0.492-0.548,0.698-0.864  c4.505,6.26,5.477,12.215,3.204,14.488C48.809,77.534,40.252,75.304,32.501,67.555z"/>
<rect x="5.002" y="54.322" width="9.357" height="3.871"/>
<rect x="20.295" y="73.373" transform="matrix(0.7074 0.7069 -0.7069 0.7074 61.678 7.1275)" width="3.873" height="9.36"/>
<rect x="41.976" y="85.81" width="3.872" height="9.356"/>
<text x="0.0" y="117.5" font-size="5.0" font-weight="bold" font-family="Helvetica Neue, Helvetica, Arial-Unicode, Arial, Sans-serif" fill="#000000">Created by Dan Hetteix</text><text x="0.0" y="122.5" font-size="5.0" font-weight="bold" font-family="Helvetica Neue, Helvetica, Arial-Unicode, Arial, Sans-serif" fill="#000000">from the Noun Project</text></svg>