<?xml version="1.0" encoding="utf-8"?>
<!-- Generator: Adobe Illustrator 17.1.0, SVG Export Plug-In . SVG Version: 6.00 Build 0)  -->
<!DOCTYPE svg PUBLIC "-//W3C//DTD SVG 1.1//EN" "http://www.w3.org/Graphics/SVG/1.1/DTD/svg11.dtd">
<svg version="1.1" id="Calque_1" xmlns="http://www.w3.org/2000/svg" xmlns:xlink="http://www.w3.org/1999/xlink" x="0px" y="0px"
	 viewBox="0 0 100 100" enable-background="new 0 0 100 100" xml:space="preserve">
<g>
	<path fill="#010101" d="M49.8,44.8c-3.1,0-5.7,2.5-5.7,5.7c0,3.1,2.5,5.7,5.7,5.7c3.1,0,5.7-2.5,5.7-5.7
		C55.5,47.4,52.9,44.8,49.8,44.8z"/>
	<path fill="#010101" d="M79.4,47.8c-1.3-14.2-12.7-25.6-26.9-26.9v-7.4h-5.4v7.4c-14.2,1.3-25.6,12.7-26.9,26.9h-7.4v5.4h7.4
		c1.3,14.2,12.7,25.6,26.9,26.9v7.4h5.4v-7.4c14.2-1.3,25.6-12.7,26.9-26.9h7.4v-5.4C86.8,47.8,79.4,47.8,79.4,47.8z M73.9,53.2
		c-1.2,11.3-10.2,20.2-21.5,21.5v-9.7h-5.4v9.7c-11.3-1.2-20.2-10.2-21.5-21.5h9.7v-5.4h-9.7c1.2-11.3,10.2-20.2,21.5-21.5V36h5.4
		v-9.7c11.3,1.2,20.2,10.2,21.5,21.5h-9.7v5.4C64.2,53.2,73.9,53.2,73.9,53.2z"/>
</g>
</svg>
