<?xml version="1.0" encoding="utf-8"?>
<!-- Generator: Adobe Illustrator 17.1.0, SVG Export Plug-In . SVG Version: 6.00 Build 0)  -->
<!DOCTYPE svg PUBLIC "-//W3C//DTD SVG 1.1//EN" "http://www.w3.org/Graphics/SVG/1.1/DTD/svg11.dtd">
<svg version="1.1" id="Calque_1" xmlns="http://www.w3.org/2000/svg" xmlns:xlink="http://www.w3.org/1999/xlink" x="0px" y="0px"
	 viewBox="0 0 100 100" enable-background="new 0 0 100 100" xml:space="preserve">
<path fill="#010101" d="M79.3,40.1L79.3,40.1c0-0.1,0-0.1,0-0.2c0-0.1,0-0.2,0-0.3l-6.8-16.8c0,0,0,0,0,0c-0.1-0.3-0.4-0.6-0.8-0.6
	c-0.1,0-0.1,0-0.2,0c0,0,0,0,0,0H27.2c0,0,0,0,0,0c-0.1,0-0.1,0-0.2,0c-0.2,0-0.5,0.1-0.6,0.3c0,0,0,0,0,0.1
	c-0.1,0.1-0.2,0.2-0.2,0.3c0,0,0,0,0,0l-6.8,16.8c0,0.1,0,0.2,0,0.2c0,0.1,0,0.1,0,0.2v0c0,0,0,0,0,0v37.5c0,0.6,0.5,1.1,1.1,1.1
	h57.8c0.6,0,1.1-0.5,1.1-1.1L79.3,40.1C79.3,40.1,79.3,40.1,79.3,40.1z M49.6,42.7c0,0-0.1,0-0.1,0c-0.1,0-0.1,0-0.2,0
	c-0.1,0-0.1,0-0.2,0c0,0-0.1,0-0.1,0l-3.6,1.2v-2.6h8v2.6L49.6,42.7z M28,24.4h16.7L43.2,39H22.1L28,24.4z M48.2,39h-2.7l1.5-14.6
	h1.3V39z M50.4,24.4h1.3L53.1,39h-2.7V24.4z M55.4,39l-1.5-14.6h16.7L76.5,39H55.4z M77.1,76.6H21.5V41.2h21.6v4.2
	c0,0.1,0,0.1,0,0.2c0,0.1,0,0.1,0,0.2c0,0,0,0,0,0c0.1,0.2,0.2,0.4,0.4,0.5c0,0,0.1,0,0.1,0.1c0.2,0.1,0.4,0.2,0.6,0.2
	c0.1,0,0.2,0,0.4-0.1l4.7-1.6l4.7,1.6c0.1,0,0.2,0.1,0.4,0.1c0.2,0,0.4-0.1,0.6-0.2c0,0,0.1,0,0.1-0.1c0.2-0.1,0.3-0.3,0.4-0.5
	c0,0,0,0,0,0c0-0.1,0-0.1,0-0.2c0-0.1,0-0.1,0-0.2v-4.2h21.6L77.1,76.6L77.1,76.6z"/>
<ellipse fill="#010101" cx="38.2" cy="55.5" rx="2.2" ry="3.3"/>
<ellipse fill="#010101" cx="60.4" cy="55.5" rx="2.2" ry="3.3"/>
<path fill="#010101" d="M60.4,61.1H38.2c-0.7,0-1.3,0.3-1.8,0.9c-0.4,0.6-0.6,1.3-0.4,1.9c0.1,0.3,2.4,8.3,13.3,8.3
	c10.8,0,13.2-8,13.3-8.3c0.2-0.7,0-1.4-0.4-1.9C61.8,61.4,61.1,61.1,60.4,61.1z"/>
</svg>
