<?xml version="1.0" encoding="utf-8"?>
<!-- Generator: Adobe Illustrator 17.1.0, SVG Export Plug-In . SVG Version: 6.00 Build 0)  -->
<!DOCTYPE svg PUBLIC "-//W3C//DTD SVG 1.1//EN" "http://www.w3.org/Graphics/SVG/1.1/DTD/svg11.dtd">
<svg version="1.1" id="Calque_1" xmlns="http://www.w3.org/2000/svg" xmlns:xlink="http://www.w3.org/1999/xlink" x="0px" y="0px"
	 viewBox="0 0 100 100" enable-background="new 0 0 100 100" xml:space="preserve">
<polygon fill="#010101" points="23,46 18,51 20.6,53.6 22.1,52.1 22.2,52.2 20.7,53.7 23.2,56.2 25.5,53.9 25.6,54 23.3,56.3 
	25.8,58.8 27.2,57.4 27.3,57.5 25.9,58.9 28,61 31.3,54.3 "/>
<polygon fill="#010101" points="49.3,72.3 33,56 29.7,62.7 31.1,64.1 32.6,62.7 32.7,62.8 31.2,64.2 33.8,66.8 36.1,64.5 36.2,64.6 
	33.9,66.9 36.4,69.4 37.8,67.9 38,68 36.5,69.5 39,72 41.2,69.7 41.4,69.8 39.1,72.1 41.7,74.7 43.1,73.2 43.3,73.4 41.8,74.8 
	44.3,77.3 46.6,75 46.7,75.1 44.4,77.4 46.9,79.9 48.4,78.5 48.5,78.7 47.1,80.1 49.3,82.3 51.9,79.7 50.5,78.4 50.6,78.3 52,79.6 
	54.5,77.1 52.3,74.9 52.4,74.7 54.6,77 57.1,74.5 55.7,73.1 55.8,73 57.2,74.3 59.8,71.8 57.6,69.5 57.7,69.4 59.9,71.6 62.5,69.1 
	61,67.7 61.1,67.6 62.6,69 65,66.6 62.7,64.3 62.9,64.2 65.1,66.4 67.7,63.9 66.2,62.5 66.4,62.4 67.8,63.8 69.5,62.1 66.2,55.4 "/>
<polygon fill="#010101" points="78.4,53.2 80.6,51 75.6,46 67.9,53.7 71.2,60.4 73,58.6 71.6,57.3 71.7,57.1 73.1,58.5 75.6,56 
	73.4,53.7 73.5,53.6 75.7,55.9 78.2,53.4 76.8,52 76.9,51.8 "/>
<path fill="#010101" d="M72.1,67.2c1.3,0,3.4,2.6,3.4,2.6L71,60.5L69.6,62L72.1,67.2z"/>
<path fill="#010101" d="M54.2,25.5c-0.8,1.8-2.6,3.1-4.7,3.1c-0.1,0-0.1,0-0.2,0L56,40.4c0,0,0.1,0,0.1,0c0,0,0,0,0,0
	c0,0,0.1,0,0.1,0c0,0,0,0,0.1,0c0,0,0,0,0.1,0c0,0,0,0,0.1,0c0,0,0,0,0.1,0c0,0,0,0,0,0c0.1,0,0.1,0,0.2,0c0,0,0,0,0,0
	c0.1,0,0.1,0,0.2,0c0,0,0,0,0,0c0.1,0,0.1,0,0.2,0.1c0,0,0,0,0,0c0.1,0,0.1,0.1,0.2,0.1c0,0,0,0,0,0c0.1,0,0.1,0.1,0.2,0.1
	c0,0,0,0,0,0c0.1,0,0.1,0.1,0.2,0.1c0,0,0,0,0,0c0.1,0,0.1,0.1,0.2,0.1c0,0,0,0,0,0c0.1,0.1,0.1,0.1,0.2,0.2c0,0,0,0,0,0
	c0.1,0.1,0.1,0.1,0.2,0.2c0,0,0,0,0,0c0.1,0.1,0.1,0.1,0.2,0.2c0,0,0,0,0,0c0.1,0.1,0.1,0.1,0.2,0.2c0,0,0,0,0,0
	c0.1,0.1,0.1,0.1,0.2,0.2c0,0,0,0,0,0c0.1,0.1,0.1,0.1,0.2,0.2c0,0,0,0,0,0c0.1,0.1,0.1,0.1,0.2,0.2c0,0,0,0,0,0
	c0.1,0.1,0.1,0.1,0.2,0.2c0,0,0,0,0,0c0.1,0.2,0.2,0.3,0.4,0.5c0,0,0,0,0,0c0.1,0.1,0.1,0.2,0.2,0.2c0,0,0,0,0,0
	c0.1,0.1,0.1,0.1,0.1,0.2c0,0,0,0,0,0c0,0.1,0.1,0.1,0.1,0.2c0,0,0,0,0,0c0,0.1,0.1,0.1,0.1,0.2c0,0,0,0,0,0c0,0.1,0.1,0.1,0.1,0.2
	c0,0,0,0,0,0c0,0.1,0.1,0.1,0.1,0.2c0,0,0,0,0,0c0.1,0.1,0.1,0.2,0.2,0.3c0,0,0,0,0,0c0,0.1,0.1,0.1,0.1,0.1c0,0,0,0,0,0
	c0,0,0,0.1,0.1,0.1c0,0,0,0,0,0c0,0,0,0.1,0.1,0.1c0,0,0,0,0,0c0,0,0,0.1,0,0.1c0,0,0,0,0,0c0,0,0,0,0,0.1c0,0,0,0,0,0c0,0,0,0,0,0
	c0,0,0,0,0,0c0,0,0,0,0,0l10.5,21.7c1.3,0,3.4,2.6,3.4,2.6L54.2,25.5z"/>
<path fill="#010101" d="M49.6,18.7c-2.6,0-4.8,2.1-4.8,4.8c0,0.8,0.2,1.6,0.6,2.3c0.7,1.4,2.1,2.3,3.7,2.5c0.1,0,0.1,0,0.2,0
	c0.1,0,0.2,0,0.2,0c2,0,3.7-1.3,4.4-3c0.2-0.5,0.3-1.1,0.3-1.7C54.3,20.9,52.2,18.7,49.6,18.7z M49.6,26.7c-1.8,0-3.2-1.4-3.2-3.2
	c0-1.8,1.4-3.2,3.2-3.2c1.8,0,3.2,1.4,3.2,3.2C52.8,25.3,51.3,26.7,49.6,26.7z"/>
<path fill="#010101" d="M45.1,25.9L31.4,54.4l-7.3,15.3c0,0,2.1-2.6,3.4-2.6l5.7-11.8l4.8-10c0,0,2.6-5.1,5.1-5.1
	c0.2,0,0.3,0,0.5,0.1l6.1-11L49,28.5C47.3,28.3,45.9,27.3,45.1,25.9z"/>
</svg>
