<?xml version="1.0" encoding="utf-8"?>
<!-- Generator: Adobe Illustrator 17.1.0, SVG Export Plug-In . SVG Version: 6.00 Build 0)  -->
<!DOCTYPE svg PUBLIC "-//W3C//DTD SVG 1.1//EN" "http://www.w3.org/Graphics/SVG/1.1/DTD/svg11.dtd">
<svg version="1.1" id="Calque_1" xmlns="http://www.w3.org/2000/svg" xmlns:xlink="http://www.w3.org/1999/xlink" x="0px" y="0px"
	 viewBox="0 0 100 100" enable-background="new 0 0 100 100" xml:space="preserve">
<path fill="#010101" d="M83.5,55.7V44.3L75.7,42c-0.5-1.7-1.1-3.3-1.9-4.8l4-7.2l-8-8l-7.2,4c-1.5-0.8-3.1-1.4-4.8-1.9l-2.3-7.8
	H44.2l-2.3,7.8c-1.7,0.5-3.3,1.1-4.8,1.9l-7.2-4l-8,8l4,7.2c-0.8,1.5-1.9,3.1-2.4,4.8l-8.3,2.3v11.3l8.3,2.3
	c0.5,1.7,1.4,3.3,2.2,4.8L21.8,70l8.1,8l7.2-4c1.5,0.8,3.1,1.8,4.8,2.3l2.3,8.2h11.3l2.3-8.2c1.7-0.5,3.3-1.4,4.8-2.2l7.2,3.9l8-8.1
	l-4-7.2c0.8-1.5,1.3-3.1,1.8-4.8L83.5,55.7z M49.9,71.1c-11.6,0-21.1-9.4-21.1-21.1c0-11.6,9.4-21.1,21.1-21.1
	c11.6,0,21.1,9.4,21.1,21.1S61.5,71.1,49.9,71.1z"/>
<g>
	<path fill="#010101" d="M51.4,41.8L51.4,41.8c-0.8-0.2-1.5,0.2-1.7,1l-4,14.7c-0.2,0.7,0.2,1.5,1,1.7l0,0c0.7,0.2,1.5-0.2,1.7-1
		l4-14.7C52.6,42.7,52.1,42,51.4,41.8z"/>
	<path fill="#010101" d="M42.1,44.3c0.5-0.5,0.5-1.4,0-2l0,0c-0.5-0.5-1.4-0.5-2,0l-6.2,6.2l-1,1c-0.5,0.5-0.5,1.4,0,2l1,1l6.2,6.2
		c0.5,0.5,1.4,0.5,2,0l0,0c0.5-0.5,0.5-1.4,0-2l-5.2-5.2c-0.5-0.5-0.5-1.4,0-2L42.1,44.3z"/>
	<path fill="#010101" d="M65.7,49.5l-1-1l-6.2-6.2c-0.5-0.5-1.4-0.5-2,0l0,0c-0.5,0.5-0.5,1.4,0,2l5.2,5.2c0.5,0.5,0.5,1.4,0,2
		l-5.2,5.2c-0.5,0.5-0.5,1.4,0,2l0,0c0.5,0.5,1.4,0.5,2,0l6.2-6.2l1-1C66.2,50.9,66.2,50,65.7,49.5z"/>
</g>
</svg>
