<?xml version="1.0" encoding="utf-8"?>
<!-- Generator: Adobe Illustrator 17.1.0, SVG Export Plug-In . SVG Version: 6.00 Build 0)  -->
<!DOCTYPE svg PUBLIC "-//W3C//DTD SVG 1.1//EN" "http://www.w3.org/Graphics/SVG/1.1/DTD/svg11.dtd">
<svg version="1.1" id="Calque_1" xmlns="http://www.w3.org/2000/svg" xmlns:xlink="http://www.w3.org/1999/xlink" x="0px" y="0px"
	 viewBox="0 0 100 100" enable-background="new 0 0 100 100" xml:space="preserve">
<path fill="#010101" d="M33.2,71.1l-2.4,2.4c-0.7,0.7-1.4,1-1.6,1c-0.4,0.2-0.9,0.3-1.3,0.4c-0.5,0.1-2,0-2.7-0.3
	c-1.5-0.6-2.5-1.8-2.5-3.2l-0.1-3c1.1,0.9,2.7,1.7,3.4,2C28.2,71.3,30.8,71.4,33.2,71.1z M49.3,69.5l-6.1-1.2l-5,4
	c-0.2,0.2-0.5,0.5-0.7,0.9c-0.3,0.6-0.5,0.9-0.3,2.1l0,0c0.2,1.2,1,2.1,2.4,2.5c0.5,0.1,1.3,0,1.5-0.1L52.8,74
	C51.2,73,49.9,71.4,49.3,69.5z M84.5,59.3c0.4,2.3,0.1,4.3-0.7,5.6c-0.5,0.7-1.1,1.3-1.9,1.5c-0.8,0.3-23.5,7.5-23.5,7.5
	C58,74,56.9,74.1,56,74c-0.8-0.1-1.6-0.4-2.4-0.9c-1.4-0.9-2.6-2.2-3.3-3.9c1.3-0.7,15-8.7,15-8.7s0-1.2,0-1.2l-15.7,9.2L44,67.5
	l-3.6-0.7c-0.8,0.7-1.6,1.5-2.6,2.1c-1.1,0.6-2.4,1.1-3.7,1.3c-2.3,0.4-4.9,0.2-7.1-0.6c-0.7-0.3-2.3-1.1-3.4-2c0,0,0,0,0,0
	c-1.1-0.9-1.9-2.1-2.4-3.3c0,0-0.6-2.1-0.6-2.7l-0.6-29c0-1.6,0.4-3.1,1.1-4.5c1-1.8,2.7-3.2,4.7-4c1.9-0.8,4.1-1.1,6.5-1
	c0.7,0,1.4,0.1,2.1,0.2c0.6-0.1,1.2-0.2,1.8-0.3c0.4,0,0.8-0.1,1.2-0.1c7.3-0.2,11.7,3.7,13.2,5.1c1.2,1.3,3.3,3.4,4.6,7.3l0,0
	c0.2,0.5,0.3,1.1,0.5,1.7c1.9,3,2.9,6.2,2.8,9.1c0,0.5-0.1,0.9-0.2,1.4l7.3,3.3c0,0,5.5-4.4,6.2-4.8c1.3-0.7,3.1-0.5,5.1,0.7
	c0.5,0.3,1,0.7,1.5,1.1c2,0.6,3.3,1.7,3.8,2.2c0.8,0.8,2.2,2.2,2.7,5C84.9,56.4,84.9,57.8,84.5,59.3z M30.5,31.3
	c-3.3,2.2-3,5.6-0.5,6.6c2.1,0.8,4.6-0.9,5.7-1.6c1.9-1.2,1.9-1.2,6.7-0.3c4.7,0.9,5.2-2.6,4.1-4.3c-1.1-1.7-3.3-2.9-5.4-3
	c-1.8,0-7,1.2-8,1.4C32.6,30.3,31.5,30.6,30.5,31.3z M55.9,40.3c-0.1-0.4-0.3-0.7-0.5-1.1c0.2,1.4,0.2,2.8,0.1,4.3
	c0,0.5,0,0.9,0,1.4c-0.2,1.1-0.5,2.1-0.9,3.2c-0.8,1.2-1.9,2.1-3.4,2.8c-1.4,0.7-3.2,1-5.2,1.1c-2.1,0-4.4-0.3-6.9-1.1
	c-2.6-0.8-5.2-2.1-7.4-3.7c-2.3-1.6-4.3-3.5-5.9-5.6c-3-4.1-4-8.4-2.3-11.7c0.6-0.7,1.3-1.5,2.2-2.3c0.4-0.3,4.3-2.5,5.9-3
	c-0.4,0-0.8,0-1.2,0.1c-1.4,0.1-2.7,0.4-3.9,0.9c-1.9,0.8-3.4,2-4.3,3.7c-0.7,1.3-1.1,2.8-1,4.4c0.1,2.8,1.3,5.8,3.5,8.7
	c1.7,2.3,3.9,4.4,6.4,6.1c2.5,1.7,5.2,3.1,8.1,4c2.7,0.9,5.2,1.2,7.5,1.2c2.1-0.1,4-0.5,5.5-1.2c0.1,0,0.2-0.1,0.3-0.1
	c1.3-0.7,2.3-1.6,3.1-2.7c0.8-1.1,1.2-2.4,1.4-4C57,43.9,56.6,42.1,55.9,40.3z M83.8,61.1c-0.3,0.6-0.6,1.1-1.1,1.6c0,0,0,0.1,0,0.1
	c-0.3,0.5-0.6,0.8-1.1,1.1c-0.7,0.4-1.6,0.5-2.6,0.1c-3.2-1-6.4-5.3-7.4-9.7c0.1,0.1,0.3,0.2,0.5,0.3c1.1,0.4,2.4-0.5,2.9-0.8
	c1-0.6,1-0.6,3.4-0.2c2.4,0.4,2.7-1.3,2.1-2.2c-0.6-0.9-1.7-1.5-2.8-1.5c-0.9,0-3.6,0.6-4.1,0.7c-0.3,0.1-0.8,0.2-1.3,0.6
	c-0.5,0.3-0.8,0.7-1,1.1c0,0,0,0,0-0.1c-0.2-2.2,0.4-3.8,1.4-4.5c0,0,0.1-0.1,0.2-0.1c0.7-0.5,1.6-0.6,2.6-0.3c0.3,0,0.7,0,1,0
	c-1.7-1-3.2-1.1-4.3-0.4c-0.6,0.3-1,0.9-1.3,1.6c-0.4,0.9-0.6,2.1-0.5,3.5c0.3,5.6,4.5,11.8,8.7,13.1c0.1,0,0.3,0.1,0.4,0.1
	c1.7,0.4,3-0.2,3.7-1.5C83.5,63.2,83.7,62.3,83.8,61.1z"/>
</svg>
