<svg xmlns="http://www.w3.org/2000/svg" xmlns:xlink="http://www.w3.org/1999/xlink" version="1.1" id="Layer_1" x="0px" y="0px" width="100px" height="100px" viewBox="5.0 -10.0 100.0 135.0" enable-background="new 0 0 100 100" xml:space="preserve">
<path fill="#000000" d="M75.312,42.687v-0.011c0-0.048-0.02-0.092-0.027-0.137c-0.011-0.072-0.011-0.145-0.041-0.214L69.51,28.143  c-0.002-0.002-0.003-0.003-0.003-0.005c-0.119-0.286-0.377-0.483-0.687-0.544c-0.057-0.013-0.111-0.035-0.17-0.035  c-0.004,0-0.006-0.002-0.009-0.002H31.36c-0.003,0-0.007,0.002-0.011,0.002c-0.047,0-0.089,0.02-0.133,0.027  c-0.2,0.031-0.383,0.11-0.518,0.247c-0.015,0.013-0.022,0.035-0.035,0.052c-0.067,0.075-0.128,0.157-0.168,0.252  c0,0.002-0.001,0.003-0.003,0.005l-5.735,14.182c-0.028,0.069-0.029,0.139-0.039,0.209c-0.009,0.049-0.029,0.091-0.029,0.143v0.011  c0,0.002,0,0.004,0,0.008v31.681c0,0.518,0.419,0.938,0.938,0.938h48.75c0.518,0,0.938-0.419,0.938-0.938V42.694  C75.312,42.69,75.312,42.688,75.312,42.687z M50.297,44.809c-0.037-0.013-0.075-0.005-0.112-0.013  c-0.062-0.015-0.123-0.021-0.187-0.021c-0.061,0-0.115,0.007-0.174,0.02c-0.04,0.007-0.081,0.001-0.121,0.015l-3.067,1.023v-2.219  h6.728v2.219L50.297,44.809z M31.993,29.432h14.105l-1.23,12.307H27.017L31.993,29.432z M49.062,41.738H46.75l1.23-12.307h1.082  V41.738z M50.938,29.432h1.082l1.23,12.307h-2.312V29.432z M55.132,41.738l-1.23-12.307h14.105l4.977,12.307H55.132z M73.438,73.438  H26.562V43.613h18.199v3.52c0,0.051,0.02,0.095,0.029,0.143c0.007,0.051,0.002,0.103,0.019,0.154  c0.003,0.009,0.013,0.013,0.016,0.022c0.061,0.165,0.167,0.3,0.302,0.406c0.028,0.022,0.053,0.037,0.084,0.057  c0.145,0.089,0.304,0.156,0.487,0.156c0.099,0,0.198-0.015,0.297-0.048L50,46.688l4.004,1.335c0.099,0.033,0.198,0.048,0.297,0.048  c0.183,0,0.342-0.066,0.487-0.156c0.031-0.02,0.057-0.035,0.084-0.057c0.135-0.106,0.242-0.241,0.302-0.406  c0.003-0.009,0.013-0.013,0.016-0.022c0.017-0.051,0.011-0.103,0.019-0.154c0.009-0.048,0.029-0.092,0.029-0.143v-3.52h18.199  V73.438z"/>
<ellipse fill="#000000" cx="40.625" cy="55.678" rx="1.875" ry="2.812"/>
<ellipse fill="#000000" cx="59.375" cy="55.678" rx="1.875" ry="2.812"/>
<path fill="#000000" d="M59.375,60.366h-18.75c-0.586,0-1.137,0.274-1.492,0.74c-0.354,0.467-0.471,1.073-0.313,1.637  c0.079,0.286,2.049,6.999,11.181,6.999c9.133,0,11.102-6.713,11.182-6.999c0.156-0.564,0.041-1.17-0.315-1.637  C60.514,60.64,59.961,60.366,59.375,60.366z"/>
<text x="0.0" y="117.5" font-size="5.0" font-weight="bold" font-family="Helvetica Neue, Helvetica, Arial-Unicode, Arial, Sans-serif" fill="#000000">Created by Julien Deveaux</text><text x="0.0" y="122.5" font-size="5.0" font-weight="bold" font-family="Helvetica Neue, Helvetica, Arial-Unicode, Arial, Sans-serif" fill="#000000">from the Noun Project</text></svg>